<svg width="328" height="80" viewBox="0 0 328 80" fill="none" xmlns="http://www.w3.org/2000/svg">
<rect y="5.21739" width="57.0652" height="62.6087" rx="13.0435" fill="#1A8FA9"/>
<path d="M76.4565 58C76.0261 58 75.6935 57.8826 75.4587 57.6478C75.2239 57.3739 75.1065 57.0413 75.1065 56.65V18.3217C75.1065 17.8913 75.2239 17.5587 75.4587 17.3239C75.6935 17.05 76.0261 16.913 76.4565 16.913H92.5391C95.4739 16.913 97.8609 17.4022 99.7 18.3804C101.578 19.3196 102.948 20.6109 103.809 22.2543C104.709 23.8978 105.159 25.737 105.159 27.7717C105.159 29.3761 104.885 30.7652 104.337 31.9391C103.828 33.0739 103.183 34.013 102.4 34.7565C101.617 35.4609 100.854 36.0087 100.111 36.4C101.637 37.1435 102.987 38.3565 104.161 40.0391C105.374 41.7217 105.98 43.7565 105.98 46.1435C105.98 48.2957 105.491 50.2717 104.513 52.0717C103.535 53.8717 102.067 55.3196 100.111 56.4152C98.1935 57.4717 95.8065 58 92.95 58H76.4565ZM80.8587 53.2457H92.187C94.7304 53.2457 96.687 52.5609 98.0565 51.1913C99.4261 49.8217 100.111 48.1391 100.111 46.1435C100.111 44.0696 99.4261 42.3674 98.0565 41.037C96.687 39.6674 94.7304 38.9826 92.187 38.9826H80.8587V53.2457ZM80.8587 34.287H91.6587C94.163 34.287 96.0609 33.7196 97.3522 32.5848C98.6435 31.4109 99.2891 29.8261 99.2891 27.8304C99.2891 25.8348 98.6435 24.3087 97.3522 23.2522C96.0609 22.1957 94.163 21.6674 91.6587 21.6674H80.8587V34.287ZM122.061 58.587C120.105 58.587 118.324 58.1957 116.72 57.413C115.116 56.6304 113.824 55.5739 112.846 54.2435C111.868 52.913 111.379 51.4065 111.379 49.7239C111.379 47.0239 112.474 44.8717 114.666 43.2674C116.857 41.663 119.713 40.6065 123.235 40.0978L131.981 38.8652V37.163C131.981 35.2848 131.433 33.8174 130.337 32.7609C129.281 31.7043 127.539 31.1761 125.113 31.1761C123.353 31.1761 121.924 31.5283 120.829 32.2326C119.772 32.937 119.029 33.837 118.598 34.9326C118.363 35.5196 117.953 35.813 117.366 35.813H114.724C114.294 35.813 113.961 35.6957 113.726 35.4609C113.531 35.187 113.433 34.8739 113.433 34.5217C113.433 33.9348 113.648 33.2109 114.079 32.35C114.548 31.4891 115.253 30.6478 116.192 29.8261C117.131 29.0043 118.324 28.3196 119.772 27.7717C121.259 27.1848 123.059 26.8913 125.172 26.8913C127.52 26.8913 129.496 27.2043 131.1 27.8304C132.705 28.4174 133.957 29.2196 134.857 30.237C135.796 31.2543 136.461 32.4087 136.853 33.7C137.283 34.9913 137.498 36.3022 137.498 37.6326V56.65C137.498 57.0413 137.361 57.3739 137.087 57.6478C136.853 57.8826 136.539 58 136.148 58H133.448C133.018 58 132.685 57.8826 132.45 57.6478C132.216 57.3739 132.098 57.0413 132.098 56.65V54.1261C131.589 54.8304 130.905 55.5348 130.044 56.2391C129.183 56.9043 128.107 57.4717 126.816 57.9413C125.524 58.3717 123.939 58.587 122.061 58.587ZM123.294 54.1848C124.898 54.1848 126.366 53.8522 127.696 53.187C129.026 52.4826 130.063 51.4065 130.807 49.9587C131.589 48.5109 131.981 46.6913 131.981 44.5V42.8565L125.172 43.8543C122.394 44.2457 120.3 44.9109 118.892 45.85C117.483 46.75 116.779 47.9043 116.779 49.313C116.779 50.4087 117.092 51.3283 117.718 52.0717C118.383 52.7761 119.205 53.3043 120.183 53.6565C121.2 54.0087 122.237 54.1848 123.294 54.1848ZM158.262 58.587C155.484 58.587 153.077 58.0587 151.043 57.0022C149.047 55.9065 147.501 54.3609 146.406 52.3652C145.31 50.3304 144.723 47.9043 144.645 45.087C144.606 44.5 144.586 43.7174 144.586 42.7391C144.586 41.7609 144.606 40.9783 144.645 40.3913C144.723 37.5739 145.31 35.1674 146.406 33.1717C147.501 31.137 149.047 29.5913 151.043 28.5348C153.077 27.4391 155.484 26.8913 158.262 26.8913C160.532 26.8913 162.469 27.2043 164.073 27.8304C165.717 28.4565 167.067 29.2587 168.123 30.237C169.18 31.2152 169.962 32.2717 170.471 33.4065C171.019 34.5413 171.312 35.6174 171.351 36.6348C171.39 37.0261 171.273 37.3391 170.999 37.5739C170.725 37.8087 170.393 37.9261 170.001 37.9261H167.184C166.793 37.9261 166.499 37.8478 166.304 37.6913C166.108 37.4957 165.912 37.1826 165.717 36.7522C165.012 34.8348 164.054 33.4848 162.84 32.7022C161.627 31.9196 160.121 31.5283 158.321 31.5283C155.973 31.5283 154.056 32.2522 152.569 33.7C151.121 35.1478 150.338 37.4761 150.221 40.6848C150.182 42.0935 150.182 43.463 150.221 44.7935C150.338 48.0413 151.121 50.3891 152.569 51.837C154.056 53.2457 155.973 53.95 158.321 53.95C160.121 53.95 161.627 53.5587 162.84 52.7761C164.054 51.9935 165.012 50.6435 165.717 48.7261C165.912 48.2957 166.108 48.0022 166.304 47.8457C166.499 47.65 166.793 47.5522 167.184 47.5522H170.001C170.393 47.5522 170.725 47.6696 170.999 47.9043C171.273 48.1391 171.39 48.4522 171.351 48.8435C171.312 49.6652 171.136 50.5065 170.823 51.3674C170.51 52.2283 170.001 53.1087 169.297 54.0087C168.632 54.8696 167.79 55.6522 166.773 56.3565C165.756 57.0217 164.523 57.5696 163.075 58C161.667 58.3913 160.062 58.587 158.262 58.587ZM179.731 58C179.339 58 179.007 57.8826 178.733 57.6478C178.498 57.3739 178.381 57.0413 178.381 56.65V17.6761C178.381 17.2848 178.498 16.9717 178.733 16.737C179.007 16.463 179.339 16.3261 179.731 16.3261H182.489C182.881 16.3261 183.194 16.463 183.428 16.737C183.702 16.9717 183.839 17.2848 183.839 17.6761V38.1022L195.402 28.4761C195.872 28.0848 196.224 27.8304 196.459 27.713C196.733 27.5565 197.163 27.4783 197.75 27.4783H200.861C201.213 27.4783 201.507 27.5957 201.741 27.8304C201.976 28.0652 202.094 28.3587 202.094 28.7109C202.094 28.8674 202.035 29.0435 201.918 29.2391C201.839 29.4348 201.663 29.6304 201.389 29.8261L187.831 41.0957L202.857 55.7109C203.326 56.1022 203.561 56.4543 203.561 56.7674C203.561 57.1196 203.444 57.413 203.209 57.6478C202.974 57.8826 202.681 58 202.328 58H199.276C198.689 58 198.259 57.9413 197.985 57.8239C197.711 57.6674 197.359 57.3935 196.928 57.0022L183.839 44.5V56.65C183.839 57.0413 183.702 57.3739 183.428 57.6478C183.194 57.8826 182.881 58 182.489 58H179.731ZM218.579 58.587C216.388 58.587 214.509 58.313 212.944 57.7652C211.379 57.2174 210.107 56.5522 209.129 55.7696C208.151 54.987 207.407 54.2043 206.898 53.4217C206.429 52.6391 206.175 52.013 206.135 51.5435C206.096 51.113 206.233 50.7804 206.546 50.5457C206.859 50.3109 207.172 50.1935 207.485 50.1935H210.068C210.303 50.1935 210.479 50.2326 210.596 50.3109C210.753 50.35 210.948 50.5065 211.183 50.7804C211.692 51.3283 212.259 51.8761 212.885 52.4239C213.511 52.9717 214.275 53.4217 215.175 53.7739C216.114 54.1261 217.268 54.3022 218.638 54.3022C220.633 54.3022 222.277 53.9304 223.568 53.187C224.859 52.4043 225.505 51.2696 225.505 49.7826C225.505 48.8043 225.231 48.0217 224.683 47.4348C224.175 46.8478 223.235 46.3196 221.866 45.85C220.535 45.3804 218.696 44.8913 216.348 44.3826C214.001 43.8348 212.142 43.1696 210.772 42.387C209.403 41.5652 208.425 40.6065 207.838 39.5109C207.251 38.3761 206.957 37.1043 206.957 35.6957C206.957 34.2478 207.388 32.8587 208.248 31.5283C209.109 30.1587 210.361 29.0435 212.005 28.1826C213.688 27.3217 215.781 26.8913 218.285 26.8913C220.32 26.8913 222.061 27.1457 223.509 27.6543C224.957 28.163 226.151 28.8087 227.09 29.5913C228.029 30.3348 228.733 31.0783 229.203 31.8217C229.672 32.5652 229.927 33.1913 229.966 33.7C230.005 34.0913 229.888 34.4239 229.614 34.6978C229.34 34.9326 229.027 35.05 228.675 35.05H226.209C225.935 35.05 225.701 34.9913 225.505 34.8739C225.348 34.7565 225.192 34.6196 225.035 34.463C224.644 33.9543 224.175 33.4457 223.627 32.937C223.118 32.4283 222.433 32.0174 221.572 31.7043C220.751 31.3522 219.655 31.1761 218.285 31.1761C216.329 31.1761 214.861 31.587 213.883 32.4087C212.905 33.2304 212.416 34.2674 212.416 35.5196C212.416 36.263 212.631 36.9283 213.061 37.5152C213.492 38.1022 214.314 38.6304 215.527 39.1C216.74 39.5696 218.54 40.0783 220.927 40.6261C223.509 41.1348 225.544 41.8196 227.031 42.6804C228.518 43.5413 229.575 44.5391 230.201 45.6739C230.827 46.8087 231.14 48.1196 231.14 49.6065C231.14 51.25 230.651 52.7565 229.672 54.1261C228.733 55.4957 227.325 56.5913 225.446 57.413C223.607 58.1957 221.318 58.587 218.579 58.587ZM249.793 58C247.601 58 245.821 57.5891 244.451 56.7674C243.082 55.9065 242.084 54.713 241.458 53.187C240.832 51.6217 240.519 49.7826 240.519 47.6696V32.1739H235.94C235.549 32.1739 235.216 32.0565 234.943 31.8217C234.708 31.5478 234.59 31.2152 234.59 30.8239V28.8283C234.59 28.437 234.708 28.1239 234.943 27.8891C235.216 27.6152 235.549 27.4783 235.94 27.4783H240.519V17.6761C240.519 17.2848 240.636 16.9717 240.871 16.737C241.145 16.463 241.477 16.3261 241.869 16.3261H244.627C245.019 16.3261 245.332 16.463 245.566 16.737C245.84 16.9717 245.977 17.2848 245.977 17.6761V27.4783H253.256C253.647 27.4783 253.96 27.6152 254.195 27.8891C254.469 28.1239 254.606 28.437 254.606 28.8283V30.8239C254.606 31.2152 254.469 31.5478 254.195 31.8217C253.96 32.0565 253.647 32.1739 253.256 32.1739H245.977V47.2587C245.977 49.0978 246.29 50.5457 246.916 51.6022C247.543 52.6587 248.658 53.187 250.262 53.187H253.843C254.234 53.187 254.547 53.3239 254.782 53.5978C255.056 53.8326 255.193 54.1457 255.193 54.537V56.65C255.193 57.0413 255.056 57.3739 254.782 57.6478C254.547 57.8826 254.234 58 253.843 58H249.793ZM269.316 58.587C267.36 58.587 265.579 58.1957 263.975 57.413C262.371 56.6304 261.079 55.5739 260.101 54.2435C259.123 52.913 258.634 51.4065 258.634 49.7239C258.634 47.0239 259.729 44.8717 261.921 43.2674C264.112 41.663 266.968 40.6065 270.49 40.0978L279.236 38.8652V37.163C279.236 35.2848 278.688 33.8174 277.592 32.7609C276.536 31.7043 274.794 31.1761 272.368 31.1761C270.608 31.1761 269.179 31.5283 268.084 32.2326C267.027 32.937 266.284 33.837 265.853 34.9326C265.618 35.5196 265.208 35.813 264.621 35.813H261.979C261.549 35.813 261.216 35.6957 260.981 35.4609C260.786 35.187 260.688 34.8739 260.688 34.5217C260.688 33.9348 260.903 33.2109 261.334 32.35C261.803 31.4891 262.508 30.6478 263.447 29.8261C264.386 29.0043 265.579 28.3196 267.027 27.7717C268.514 27.1848 270.314 26.8913 272.427 26.8913C274.775 26.8913 276.751 27.2043 278.355 27.8304C279.96 28.4174 281.212 29.2196 282.112 30.237C283.051 31.2543 283.716 32.4087 284.108 33.7C284.538 34.9913 284.753 36.3022 284.753 37.6326V56.65C284.753 57.0413 284.616 57.3739 284.342 57.6478C284.108 57.8826 283.794 58 283.403 58H280.703C280.273 58 279.94 57.8826 279.705 57.6478C279.471 57.3739 279.353 57.0413 279.353 56.65V54.1261C278.844 54.8304 278.16 55.5348 277.299 56.2391C276.438 56.9043 275.362 57.4717 274.071 57.9413C272.779 58.3717 271.194 58.587 269.316 58.587ZM270.549 54.1848C272.153 54.1848 273.621 53.8522 274.951 53.187C276.281 52.4826 277.318 51.4065 278.062 49.9587C278.844 48.5109 279.236 46.6913 279.236 44.5V42.8565L272.427 43.8543C269.649 44.2457 267.555 44.9109 266.147 45.85C264.738 46.75 264.034 47.9043 264.034 49.313C264.034 50.4087 264.347 51.3283 264.973 52.0717C265.638 52.7761 266.46 53.3043 267.438 53.6565C268.455 54.0087 269.492 54.1848 270.549 54.1848ZM297.902 69.1522C297.589 69.1522 297.315 69.0348 297.08 68.8C296.845 68.5652 296.728 68.2913 296.728 67.9783C296.728 67.8217 296.748 67.6652 296.787 67.5087C296.826 67.3522 296.904 67.1565 297.021 66.9217L301.541 56.1804L290.33 29.7087C290.135 29.2391 290.037 28.9065 290.037 28.7109C290.037 28.3587 290.154 28.0652 290.389 27.8304C290.624 27.5957 290.917 27.4783 291.269 27.4783H294.145C294.537 27.4783 294.85 27.5761 295.085 27.7717C295.319 27.9674 295.476 28.2022 295.554 28.4761L304.476 49.8413L313.632 28.4761C313.75 28.2022 313.906 27.9674 314.102 27.7717C314.337 27.5761 314.669 27.4783 315.1 27.4783H317.858C318.211 27.4783 318.504 27.5957 318.739 27.8304C318.974 28.0652 319.091 28.3391 319.091 28.6522C319.091 28.8478 318.993 29.2 318.798 29.7087L302.128 68.1543C302.011 68.4283 301.835 68.663 301.6 68.8587C301.404 69.0543 301.091 69.1522 300.661 69.1522H297.902Z" fill="black"/>
<path d="M21.1957 36.5217V19.7752C21.1957 18.2971 23.0047 17.5818 24.0156 18.6601L40.7609 36.5217M21.1957 36.5217V53.2683C21.1957 54.7463 23.0047 55.4617 24.0156 54.3834L40.7609 36.5217M21.1957 36.5217H40.7609" stroke="white" stroke-width="3.26087"/>
</svg>
